<svg xmlns="http://www.w3.org/2000/svg">
    <defs>
        <style>
        .img { display: none }
        .img:target { display: inline }
        </style>
    </defs>

		<svg viewBox="0 0 28 25" fill="none" xmlns="http://www.w3.org/2000/svg">
			<g id="search" class="img">
				<path d="M18.1329 2.71192C19.8547 4.21228 20.9323 6.18173 21.1856 8.29081C21.4388 10.3999 20.8522 12.5207 19.5241 14.2985C19.7559 14.4666 19.9491 14.6516 20.2196 14.8198C20.6061 15.0888 21.1277 15.4252 21.7847 15.8119C22.4416 16.2155 22.8666 16.4678 23.0598 16.6023C23.8713 17.1236 24.4703 17.5609 24.876 17.914C25.4943 18.4521 26.0353 19.0071 26.499 19.5956C26.9821 20.1842 27.3492 20.756 27.639 21.3446C27.9095 21.9331 28.0447 22.4881 27.9868 23.0262C27.9481 23.5643 27.7163 24.0184 27.2912 24.3883C26.8661 24.7583 26.3445 24.9601 25.7262 24.9937C25.1272 25.0274 24.4703 24.9265 23.8134 24.6742C23.1371 24.4388 22.4609 24.1025 21.804 23.682C21.1277 23.2784 20.4901 22.8076 19.8719 22.2695C19.4661 21.9163 18.9638 21.395 18.3841 20.7055C18.1909 20.4869 17.9011 20.117 17.476 19.5956C17.051 19.0575 16.7032 18.6371 16.394 18.284C16.0849 17.9476 15.8337 17.6954 15.5439 17.4431C13.5385 18.3571 11.2502 18.6901 9.01221 18.3937C6.77424 18.0973 4.70337 17.1869 3.10105 15.7951C-1.03368 12.1796 -1.03368 6.31064 3.10105 2.71192C4.08764 1.8522 5.25925 1.17018 6.54889 0.704846C7.83854 0.239514 9.22092 0 10.617 0C12.0131 0 13.3955 0.239514 14.6851 0.704846C15.9747 1.17018 17.1464 1.8522 18.1329 2.71192ZM15.4087 13.4072C16.6709 12.3006 17.3792 10.8045 17.3792 9.24511C17.3792 7.68577 16.6709 6.18967 15.4087 5.08304C14.7813 4.53543 14.036 4.10094 13.2155 3.80449C12.3949 3.50803 11.5151 3.35543 10.6267 3.35543C9.73819 3.35543 8.85845 3.50803 8.03787 3.80449C7.21728 4.10094 6.47197 4.53543 5.84466 5.08304C5.21549 5.62902 4.71629 6.27771 4.37568 6.99192C4.03507 7.70613 3.85974 8.47182 3.85974 9.24511C3.85974 10.0184 4.03507 10.7841 4.37568 11.4983C4.71629 12.2125 5.21549 12.8612 5.84466 13.4072C6.47197 13.9548 7.21728 14.3893 8.03787 14.6857C8.85845 14.9822 9.73819 15.1348 10.6267 15.1348C11.5151 15.1348 12.3949 14.9822 13.2155 14.6857C14.036 14.3893 14.7813 13.9548 15.4087 13.4072Z" fill="white"/>
			</g>
		</svg>

		<svg viewBox="0 0 11 13" fill="none" xmlns="http://www.w3.org/2000/svg">
			<g id="name" class="img">
				<path d="M8.01429 7L6.28571 9.25L5.5 8.2L4.71429 9.25L2.98571 7C1.87329e-07 7.75 0 9.25 0 12.175C0 12.175 2.35714 13 5.02857 13H5.97143C8.64286 12.925 11 12.175 11 12.175C11 9.25 11 7.75 8.01429 7ZM5.5 7.525L4.24286 7L5.5 8.2L6.75714 7L5.5 7.525Z" fill="#F0CE20"/>
				<path d="M5.5 0C3.77209 0 2.77171 1.5 3.04454 3.16667C3.31737 4.83333 4.2268 6 5.5 6C6.7732 6 7.68263 4.83333 7.95546 3.16667C8.22829 1.41667 7.22791 0 5.5 0Z" fill="#F0CE20"/>
			</g>
		</svg>

		<svg viewBox="0 0 12 17" fill="none" xmlns="http://www.w3.org/2000/svg">
			<g id="phone" class="img">
				<path d="M10.32 16.2394L9.5246 16.7055C4.8718 19.2704 -3.19709 4.3138 1.33837 1.48752L2.10172 1.0363L4.57779 5.61715L3.81844 6.06482C2.4404 6.94671 5.65849 12.9407 7.0712 12.1176L7.84588 11.6629L10.32 16.2394ZM3.7811 0L2.66107 0.690633L5.13714 5.27077L6.25784 4.58014L3.7811 0ZM9.52326 10.623L8.40323 11.3136L10.8793 15.8945L12 15.2039L9.52326 10.623Z" fill="#F0CE20"/>
			</g>
		</svg>

		<svg viewBox="0 0 11 10" fill="none" xmlns="http://www.w3.org/2000/svg">
			<g id="check" class="img">
				<path d="M9.05 0L10.39 0.94L4.58 9.32H3.24L0 4.78L1.34 3.53L3.91 5.93L9.05 0Z" fill="black"/>
			</g>
		</svg>

		<svg viewBox="0 0 41 38" fill="none" xmlns="http://www.w3.org/2000/svg">
			<g id="etap1" class="img">
				<path d="M36.3226 34.4871L34.5008 36.1404C23.7335 45.4263 -8.0926 15.2028 2.18215 5.37263L3.92806 3.77656L13.6884 13.03L11.9509 14.6149C8.84471 17.657 21.5574 29.7799 24.7966 26.8546L26.5705 25.2424L36.3226 34.4871ZM7.73949 0.161024L5.19718 2.57112L14.9571 11.8229L17.5012 9.41236L7.73949 0.161024ZM30.3742 21.6198L27.8319 24.0299L37.5922 33.2833L40.1363 30.8728L30.3742 21.6198Z" fill="#F0CE20"/>
			</g>
		</svg>

		<svg viewBox="0 0 38 27" fill="none" xmlns="http://www.w3.org/2000/svg">
			<g id="etap2" class="img">
				<path d="M38 25.2V1.8C38 0.81 36.9941 0 35.7647 0H2.23529C1.00588 0 0 0.81 0 1.8V25.2C0 26.19 1.00588 27 2.23529 27H35.7647C36.9941 27 38 26.19 38 25.2ZM4.47059 3.6H33.5294V10.8H4.47059V3.6ZM6.70588 5.4V9H13.4118V5.4H6.70588ZM15.6471 5.4V9H22.3529V5.4H15.6471ZM24.5882 5.4V9H31.2941V5.4H24.5882ZM5.58824 14.4C6.21412 14.4 6.70588 14.796 6.70588 15.3C6.70588 15.804 6.21412 16.2 5.58824 16.2C4.96235 16.2 4.47059 15.804 4.47059 15.3C4.47059 14.796 4.96235 14.4 5.58824 14.4ZM8.94118 14.4H17.8824V16.2H8.94118V14.4ZM22.3529 14.4H33.5294V23.4H22.3529V14.4ZM5.58824 18C6.21412 18 6.70588 18.396 6.70588 18.9C6.70588 19.404 6.21412 19.8 5.58824 19.8C4.96235 19.8 4.47059 19.404 4.47059 18.9C4.47059 18.396 4.96235 18 5.58824 18ZM8.94118 18H17.8824V19.8H8.94118V18ZM24.5882 18V21.6H31.2941V18H24.5882ZM5.58824 21.6C6.21412 21.6 6.70588 21.996 6.70588 22.5C6.70588 23.004 6.21412 23.4 5.58824 23.4C4.96235 23.4 4.47059 23.004 4.47059 22.5C4.47059 21.996 4.96235 21.6 5.58824 21.6ZM8.94118 21.6H17.8824V23.4H8.94118V21.6Z" fill="#F0CE20"/>
			</g>
		</svg>

		<svg viewBox="0 0 44 35" fill="none" xmlns="http://www.w3.org/2000/svg">
			<g id="etap3" class="img">
				<path fill-rule="evenodd" clip-rule="evenodd" d="M0 7.95455H20.1667L22 3.18182H34.8333V4.77273H25.6667L20.1667 20.6818H3.66667L0 7.95455ZM7.32417 11.1364H5.5L7.39933 17.5H9.33717L7.32417 11.1364ZM14.9985 11.1364H13.1743L15.0737 17.5H17.0115L14.9985 11.1364ZM11.1613 11.1364H9.33717L11.2365 17.5H13.1743L11.1613 11.1364ZM12.0468 0.3325C12.4098 0.117727 12.859 0 13.3155 0C13.9975 0 14.6978 0.265682 15.1488 0.879773C16.709 3.00682 19.195 6.36364 19.195 6.36364H1.83333C1.83333 6.36364 8.62767 2.34818 12.0468 0.3325ZM20.1667 28.6364V28.6777C20.141 32.1714 16.8648 35 12.8333 35C8.78533 35 5.5 32.1491 5.5 28.6364C5.5 27.4766 5.8575 26.3916 6.48267 25.4545H3.66667V22.2727H21.8533L27.5 6.36364H35.3448C36.135 6.36364 36.8353 6.80114 37.0847 7.45182L40.3333 15.9091L42.7845 16.9718C43.5288 17.2964 44 17.9566 44 18.6789V25.4545C44 26.3343 43.1805 27.0455 42.1667 27.0455H40.1023C40.2527 27.553 40.3333 28.0875 40.3333 28.6364C40.3333 32.1491 37.048 35 33 35C28.952 35 25.6667 32.1491 25.6667 28.6364H20.1667ZM12.8333 26.25C14.3513 26.25 15.5833 27.3191 15.5833 28.6364C15.5833 29.9536 14.3513 31.0227 12.8333 31.0227C11.3153 31.0227 10.0833 29.9536 10.0833 28.6364C10.0833 27.3191 11.3153 26.25 12.8333 26.25ZM33 26.25C34.518 26.25 35.75 27.3191 35.75 28.6364C35.75 29.9536 34.518 31.0227 33 31.0227C31.482 31.0227 30.25 29.9536 30.25 28.6364C30.25 27.3191 31.482 26.25 33 26.25ZM34.815 9.54545H29.3333V14.3182H36.4632L34.815 9.54545Z" fill="#F0CE20"/>
			</g>
		</svg>

		<svg viewBox="0 0 36 36" fill="none" xmlns="http://www.w3.org/2000/svg">
			<g id="etap4" class="img">
				<path d="M3.7116 24.939C3.4146 24.189 3.78 23.5575 4.8924 23.2215L10.7406 21.489L10.4994 23.031C10.3608 23.9145 10.314 24.6915 10.3392 25.3905C9.8892 25.5075 8.3682 25.899 6.8382 26.2185C5.2704 26.5455 4.0698 25.8435 3.7116 24.939ZM6.8526 27.813C6.0228 28.0635 5.751 28.533 5.9724 29.094C6.237 29.7675 7.1334 30.291 8.3016 30.0465C9.3924 29.82 10.836 29.4525 11.3634 29.316C10.998 28.5585 10.683 27.7635 10.5012 26.8275L6.8526 27.813ZM7.2 12H11.9574L12.1878 10.5H7.2V12ZM36 3V16.5C36 18.156 34.3872 19.5 32.4 19.5H28.8198L28.8468 19.53C28.791 20.175 28.6578 20.889 28.4472 21.7155C27.6354 24.9315 25.5006 29.3985 26.9532 34.3425C22.7916 34.8765 20.3814 35.127 16.1676 36C15.6762 29.907 12.0888 28.5855 12.9204 23.295C13.896 17.0895 14.4396 13.6035 15.0732 9.4125C15.2712 8.094 16.389 7.452 17.4798 7.452C18.6156 7.452 19.7226 8.148 19.7334 9.501C19.7712 14.4555 19.9278 19.3905 20.3166 20.5905C20.5794 21.4005 22.2732 21.5475 22.2732 19.8225L22.2696 16.4985H31.5C31.9968 16.4985 32.4 16.1625 32.4 15.7485V9H22.3776C22.095 6.8085 20.0916 5.2035 17.4798 5.2035H17.478C14.886 5.2035 12.8376 6.7605 12.4272 9H3.6V15.75C3.6 16.164 4.0032 16.5 4.5 16.5H11.2626L10.7928 19.5H3.6C1.6128 19.5 0 18.156 0 16.5V3C0 1.344 1.6128 0 3.6 0H32.4C34.3872 0 36 1.344 36 3ZM32.4 3.75C32.4 3.336 31.9968 3 31.5 3H4.5C4.0032 3 3.6 3.336 3.6 3.75V4.5H32.4V3.75ZM7.2 15H11.4948L11.727 13.5H7.2V15ZM28.8 10.5H23.4V12H28.8V10.5Z" fill="#F0CE20"/>
			</g>
		</svg>

		<svg viewBox="0 0 14 23" fill="none" xmlns="http://www.w3.org/2000/svg">
			<g id="down" class="img">
				<path d="M2 0L7 5L12 0L14 1L7 8L0 1L2 0Z" fill="black"/>
				<path d="M2 15L7 20L12 15L14 16L7 23L0 16L2 15Z" fill="black"/>
				<path d="M2 7L7 12L12 7L14 8L7 15L0 8L2 7Z" fill="black"/>
			</g>
		</svg>










</svg>